<mxfile host="app.diagrams.net" agent="Mozilla/5.0 (Windows NT 10.0; Win64; x64) AppleWebKit/537.36 (KHTML, like Gecko) Chrome/126.0.0.0 Safari/537.36" version="24.7.5">
  <diagram name="第 1 页" id="Af0imZDq12ACR4mB2ieH">
    <mxGraphModel dx="1450" dy="618" grid="0" gridSize="10" guides="1" tooltips="1" connect="1" arrows="1" fold="1" page="0" pageScale="1" pageWidth="827" pageHeight="1169" math="0" shadow="0">
      <root>
        <mxCell id="0" />
        <mxCell id="1" parent="0" />
        <mxCell id="x7KJmpVcm3vN2zr1cfL9-1" value="不同客户端" style="rounded=1;whiteSpace=wrap;html=1;" vertex="1" parent="1">
          <mxGeometry x="-42" y="277" width="120" height="60" as="geometry" />
        </mxCell>
        <mxCell id="x7KJmpVcm3vN2zr1cfL9-10" style="edgeStyle=orthogonalEdgeStyle;rounded=0;orthogonalLoop=1;jettySize=auto;html=1;exitX=0;exitY=0.75;exitDx=0;exitDy=0;entryX=1;entryY=0.75;entryDx=0;entryDy=0;" edge="1" parent="1" source="x7KJmpVcm3vN2zr1cfL9-2" target="x7KJmpVcm3vN2zr1cfL9-1">
          <mxGeometry relative="1" as="geometry" />
        </mxCell>
        <mxCell id="x7KJmpVcm3vN2zr1cfL9-12" style="edgeStyle=orthogonalEdgeStyle;rounded=0;orthogonalLoop=1;jettySize=auto;html=1;exitX=1;exitY=0.75;exitDx=0;exitDy=0;entryX=0;entryY=0.75;entryDx=0;entryDy=0;" edge="1" parent="1" source="x7KJmpVcm3vN2zr1cfL9-2" target="x7KJmpVcm3vN2zr1cfL9-3">
          <mxGeometry relative="1" as="geometry" />
        </mxCell>
        <mxCell id="x7KJmpVcm3vN2zr1cfL9-2" value="API服务器" style="rounded=1;whiteSpace=wrap;html=1;" vertex="1" parent="1">
          <mxGeometry x="310" y="277" width="120" height="60" as="geometry" />
        </mxCell>
        <mxCell id="x7KJmpVcm3vN2zr1cfL9-11" style="edgeStyle=orthogonalEdgeStyle;rounded=0;orthogonalLoop=1;jettySize=auto;html=1;exitX=0;exitY=0.25;exitDx=0;exitDy=0;entryX=1;entryY=0.25;entryDx=0;entryDy=0;" edge="1" parent="1" source="x7KJmpVcm3vN2zr1cfL9-3" target="x7KJmpVcm3vN2zr1cfL9-2">
          <mxGeometry relative="1" as="geometry" />
        </mxCell>
        <mxCell id="x7KJmpVcm3vN2zr1cfL9-3" value="etcd" style="rounded=1;whiteSpace=wrap;html=1;" vertex="1" parent="1">
          <mxGeometry x="659" y="277" width="120" height="60" as="geometry" />
        </mxCell>
        <mxCell id="x7KJmpVcm3vN2zr1cfL9-5" style="edgeStyle=orthogonalEdgeStyle;rounded=0;orthogonalLoop=1;jettySize=auto;html=1;entryX=0.5;entryY=0;entryDx=0;entryDy=0;" edge="1" parent="1" source="x7KJmpVcm3vN2zr1cfL9-4" target="x7KJmpVcm3vN2zr1cfL9-2">
          <mxGeometry relative="1" as="geometry" />
        </mxCell>
        <mxCell id="x7KJmpVcm3vN2zr1cfL9-4" value="kubectl" style="rounded=1;whiteSpace=wrap;html=1;" vertex="1" parent="1">
          <mxGeometry x="310" y="78" width="120" height="60" as="geometry" />
        </mxCell>
        <mxCell id="x7KJmpVcm3vN2zr1cfL9-8" value="" style="endArrow=classic;html=1;rounded=0;exitX=1;exitY=0.25;exitDx=0;exitDy=0;entryX=0;entryY=0.25;entryDx=0;entryDy=0;" edge="1" parent="1">
          <mxGeometry width="50" height="50" relative="1" as="geometry">
            <mxPoint x="78" y="297" as="sourcePoint" />
            <mxPoint x="310" y="297" as="targetPoint" />
          </mxGeometry>
        </mxCell>
        <mxCell id="x7KJmpVcm3vN2zr1cfL9-13" value="1. 订阅消息" style="text;html=1;align=center;verticalAlign=middle;resizable=0;points=[];autosize=1;strokeColor=none;fillColor=none;" vertex="1" parent="1">
          <mxGeometry x="152" y="269" width="79" height="26" as="geometry" />
        </mxCell>
        <mxCell id="x7KJmpVcm3vN2zr1cfL9-15" value="2. POST请求" style="text;html=1;align=center;verticalAlign=middle;resizable=0;points=[];autosize=1;strokeColor=none;fillColor=none;" vertex="1" parent="1">
          <mxGeometry x="372" y="195" width="88" height="26" as="geometry" />
        </mxCell>
        <mxCell id="x7KJmpVcm3vN2zr1cfL9-16" value="3. 修改etcd中的对象" style="text;html=1;align=center;verticalAlign=middle;resizable=0;points=[];autosize=1;strokeColor=none;fillColor=none;" vertex="1" parent="1">
          <mxGeometry x="478" y="325" width="126" height="26" as="geometry" />
        </mxCell>
        <mxCell id="x7KJmpVcm3vN2zr1cfL9-17" value="4. 修改通知" style="text;html=1;align=center;verticalAlign=middle;resizable=0;points=[];autosize=1;strokeColor=none;fillColor=none;" vertex="1" parent="1">
          <mxGeometry x="495" y="264" width="79" height="26" as="geometry" />
        </mxCell>
        <mxCell id="x7KJmpVcm3vN2zr1cfL9-18" value="&amp;nbsp;5. 向所有监听者发送&lt;div&gt;更新后的对象&lt;/div&gt;" style="text;html=1;align=center;verticalAlign=middle;resizable=0;points=[];autosize=1;strokeColor=none;fillColor=none;" vertex="1" parent="1">
          <mxGeometry x="139" y="325" width="131" height="41" as="geometry" />
        </mxCell>
      </root>
    </mxGraphModel>
  </diagram>
</mxfile>
